<svg width="27" height="55" viewBox="0 0 27 55" fill="none" xmlns="http://www.w3.org/2000/svg">
<path d="M13.9447 32.9636C11.1176 32.9636 8.83059 30.3046 8.83059 27.0629V13.8046C8.83059 10.5265 11.1176 7.90398 13.9447 7.90398C16.7718 7.90398 19.0588 10.5629 19.0588 13.8046V27.0265C19.0588 30.3046 16.7718 32.9636 13.9447 32.9636ZM20.9012 23.3113H24.3318V28.3378C24.3318 33.947 20.4882 38.5729 15.66 38.9007V43.0166H20.8059V46.9503H7.08353V43.0166H12.2294V38.9007C7.40118 38.5729 3.55765 33.947 3.55765 28.3378V23.3113H6.98824V28.3378C6.98824 32.0166 9.59294 34.9669 12.7694 34.9669H15.0882C18.2965 34.9669 20.8694 31.9801 20.8694 28.3378V23.3113H20.9012Z" fill="#5DB075"/>
</svg>
