<svg width="33" height="60" viewBox="0 0 33 60" fill="none" xmlns="http://www.w3.org/2000/svg">
<path d="M17.0435 35.9603C13.5882 35.9603 10.7929 33.0596 10.7929 29.5232V15.0596C10.7929 11.4834 13.5882 8.62252 17.0435 8.62252C20.4988 8.62252 23.2941 11.5232 23.2941 15.0596V29.4834C23.2941 33.0596 20.4988 35.9603 17.0435 35.9603ZM25.5459 25.4305H29.7388V30.9139C29.7388 37.0331 25.0412 42.0795 19.14 42.4371V46.9272H25.4294V51.2185H8.65765V46.9272H14.9471V42.4371C9.04588 42.0795 4.34824 37.0331 4.34824 30.9139V25.4305H8.54118V30.9139C8.54118 34.9272 11.7247 38.1457 15.6071 38.1457H18.4412C22.3624 38.1457 25.5071 34.8874 25.5071 30.9139V25.4305H25.5459Z" fill="#5DB075"/>
</svg>
